PathFileType	4	(X/Y/Z)	c:/Users/goper/Files/vsCode/490R/osim_files/C15/C15_Slow_05.trc
DataRate	CameraRate	NumFrames	NumMarkers	Units                	OrigDataRate	OrigDataStartFrame	OrigNumFrames
250.00	250.00	8	36	mm	250.0	937	2498
                Frame#	Time	LPSIS			LASIS			LTH1			LTH2			LTH3			LTH4			LLFE			LMFE			LSH1			LSH2			LSH3			LSH4			LLMAL			LMMAL			LCAL			LMTP5			LTOE			LMTP1			RPSIS			RASIS			RTH1			RTH2			RTH3			RTH4			RLFE			RMFE			RSH1			RSH2			RSH3			RSH4			RLMAL			RMMAL			RCAL			RMTP1			RTOE			RMTP5		
		X1	Y1	Z1	X2	Y2	Z2	X3	Y3	Z3	X4	Y4	Z4	X5	Y5	Z5	X6	Y6	Z6	X7	Y7	Z7	X8	Y8	Z8	X9	Y9	Z9	X10	Y10	Z10	X11	Y11	Z11	X12	Y12	Z12	X13	Y13	Z13	X14	Y14	Z14	X15	Y15	Z15	X16	Y16	Z16	X17	Y17	Z17	X18	Y18	Z18	X19	Y19	Z19	X20	Y20	Z20	X21	Y21	Z21	X22	Y22	Z22	X23	Y23	Z23	X24	Y24	Z24	X25	Y25	Z25	X26	Y26	Z26	X27	Y27	Z27	X28	Y28	Z28	X29	Y29	Z29	X30	Y30	Z30	X31	Y31	Z31	X32	Y32	Z32	X33	Y33	Z33	X34	Y34	Z34	X35	Y35	Z35	X36	Y36	Z36

937	3.74400	1158.26147	1024.21277	308.06149	987.56689	1003.28351	362.12656	1041.51758	606.66193	415.67056	1039.88489	561.84143	399.05017	992.31781	619.47870	410.60629	989.93744	575.03448	400.12177	1022.84363	489.45520	378.21625	1022.89673	477.33948	260.52939	1090.36926	383.84412	390.81207	1091.46509	338.08408	393.65030	1027.57202	374.08331	386.73776	1038.16492	330.46765	390.49277	1093.48242	75.85899	320.65134	1076.23230	106.51226	233.12926	1152.29834	53.91160	276.29404	968.59705	34.80080	330.00751	917.40161	58.57090	264.84097	960.69202	28.01000	208.72949	1163.62659	1020.87634	187.64828	1010.90228	998.60870	116.55397	983.61932	636.96069	38.68219	969.14740	592.66156	43.24802	925.07373	651.27563	45.14096	916.65411	603.71472	46.67581	938.08765	507.30695	63.43172	932.35999	484.37927	185.45735	1054.90674	468.93271	72.19937	1082.12866	435.36234	70.34286	1012.69232	426.86679	52.16418	1045.65540	399.35202	54.79622	1223.90161	211.86597	123.38253	1167.79541	197.54774	198.68047	1275.59399	223.45326	188.59735	0.00000	0.00000	0.00000	0.00000	0.00000	0.00000	1188.69153	96.53304	68.72154
938	3.74800	1154.95459	1024.09448	308.18140	985.03149	1003.00983	362.80243	1039.74939	606.46991	415.38947	1037.02661	560.71014	398.77191	990.92230	619.21826	410.89801	988.85681	574.86334	400.25754	1021.33099	489.12064	378.02704	1021.15759	477.22711	260.99100	1089.97961	383.87302	390.75739	1091.14771	338.13892	393.59534	1027.17725	374.08420	386.96832	1037.29919	329.74457	390.43704	1093.41174	75.83215	320.61823	1076.10791	106.57678	233.10020	1152.32666	53.97643	276.28397	968.57758	34.76700	330.01825	917.35852	58.49861	264.85550	960.68585	28.04092	208.72728	1160.53503	1021.17371	187.66808	1007.57068	998.94788	116.94478	978.96259	638.38757	38.29879	967.41650	595.59692	41.62593	919.93579	652.44739	45.48026	911.23065	604.91931	47.11959	932.27545	508.36279	63.88043	925.66925	485.53549	185.92557	1049.03003	468.67587	72.50257	1075.73401	434.58029	70.49700	1006.28241	427.18860	52.46278	1039.27991	399.45627	54.58127	1214.62476	209.02364	123.03397	1157.15857	194.35005	197.48433	1266.66260	219.74336	187.76385	0.00000	0.00000	0.00000	0.00000	0.00000	0.00000	1177.52661	94.32093	68.75420
939	3.75200	1152.07385	1024.20972	308.18365	982.13202	1003.02869	363.09970	1039.14368	606.71918	415.90778	1037.62634	561.91437	399.35400	989.57965	619.07257	411.06238	987.67657	574.75385	400.58704	1020.74353	489.02661	378.22382	1020.77319	478.25763	260.34595	1089.56714	383.91971	390.70706	1090.84509	338.20221	393.53574	1026.82654	374.05414	387.17767	1037.19922	329.61987	390.86115	1093.33655	75.84283	320.56793	1075.99854	106.62550	233.06392	1152.28088	53.99683	276.21686	968.55682	34.73539	330.02707	917.31299	58.42204	264.87201	960.67035	28.06200	208.73213	1157.41174	1021.44611	187.64578	1004.41528	999.38049	117.26945	973.72009	639.25836	38.24514	959.28058	595.38397	42.64488	914.80896	653.66528	45.78233	905.88812	606.18420	47.43508	926.61414	509.40631	64.26696	921.08142	486.82990	186.23650	1043.24536	468.37698	72.73339	1069.45361	433.89386	70.56203	999.97626	427.49832	52.68904	1032.12622	399.07779	55.14450	1205.32397	206.17294	122.72651	1149.40491	194.22890	198.95886	1258.08887	216.20296	187.11761	1113.13110	68.80994	174.80560	0.00000	0.00000	0.00000	1166.30981	91.89160	68.34827
940	3.75600	1149.24048	1024.33398	308.15680	979.53461	1002.95929	363.48065	1037.79224	606.69733	416.03577	1034.82434	560.79102	399.02893	988.58124	619.30005	411.15240	986.46924	574.53760	400.61566	1019.72351	488.99280	378.29898	1018.99335	477.13675	261.29956	1089.15332	383.96698	390.65768	1090.53674	338.24106	393.45395	0.00000	0.00000	0.00000	1036.85669	329.56757	391.03970	1093.31982	75.88775	320.51770	1075.88269	106.64542	233.03792	1152.29041	54.04913	276.18045	968.22485	34.31572	329.96631	917.28619	58.36885	264.88177	960.61798	28.03772	208.74147	1154.29163	1021.66479	187.62892	1002.44092	1000.07678	116.56744	968.50165	640.08405	38.27290	953.92188	596.35980	42.68844	909.49695	654.51721	46.21923	900.61121	607.37115	47.86090	921.03510	510.53082	64.68571	915.95227	487.95764	186.54826	1037.48962	467.96689	72.92408	1063.21228	433.15836	70.71290	993.56964	427.64395	53.05464	1025.47168	398.82233	55.29738	1195.88196	203.21904	122.38638	1140.21167	191.63585	198.20488	1249.16467	212.41228	186.43311	1102.60486	68.69604	174.59727	0.00000	0.00000	0.00000	1155.01697	89.66698	68.10520
941	3.76000	1146.83862	1024.69763	308.04376	976.80347	1002.93994	363.90088	1035.66748	606.30481	415.64325	1033.67639	560.81372	399.11816	986.92114	618.70270	411.33676	985.15546	574.23114	400.59470	1019.06927	488.72223	378.55518	1017.97784	477.01163	261.45477	1088.67114	383.99500	390.62250	1090.25635	338.29529	393.41925	0.00000	0.00000	0.00000	1036.79749	329.99615	391.05170	1093.29272	75.93507	320.47736	1075.75427	106.64805	232.98210	1152.35315	54.17141	276.15756	968.20917	34.30016	330.00125	917.22681	58.29853	264.89145	960.58490	27.99600	208.75204	1151.10632	1021.82959	187.59196	0.00000	0.00000	0.00000	963.34424	640.92719	38.30495	948.60962	597.25562	42.75571	904.62439	655.85846	46.54462	895.37964	608.56061	48.34703	915.50592	511.52887	65.05825	911.20129	488.74179	187.05473	1031.80151	467.47934	73.09049	1057.16333	432.47357	70.84385	987.29382	427.80612	53.27955	1018.79407	398.49084	55.44241	1186.28198	200.06041	122.00636	1130.67676	189.64482	197.94986	1240.09241	208.50919	185.76642	0.00000	0.00000	0.00000	0.00000	0.00000	0.00000	1142.71826	86.92564	68.78384
942	3.76400	1143.52380	1024.52563	308.07733	974.14825	1002.89941	364.27988	1034.39575	606.33984	415.76321	1034.21057	561.95319	399.56982	985.62891	618.62787	411.51587	984.11188	574.24976	400.88708	1018.03473	488.70071	378.53262	1016.95477	476.87036	261.63177	1088.21997	384.03683	390.59686	1089.70471	338.10016	393.46729	0.00000	0.00000	0.00000	1036.44690	329.92352	391.13937	1093.27332	75.98112	320.44617	1075.63611	106.68314	232.93631	1152.37488	54.23633	276.10950	968.20850	34.27426	330.02530	917.23224	58.23626	264.92123	960.10718	27.20581	209.62550	1147.97815	1021.98474	187.52090	0.00000	0.00000	0.00000	958.28290	641.73010	38.31961	943.34601	598.12659	42.90113	899.67883	656.97235	46.86975	890.40894	609.93817	48.70410	910.00885	512.51251	65.52569	905.71002	489.80389	187.40356	1026.17664	466.89429	73.17274	1050.98022	431.48868	70.80358	981.00177	427.88461	53.55345	1012.01135	398.05453	55.68942	1176.67603	196.97620	121.71251	1121.90491	187.79726	197.62335	1230.87891	204.49373	185.15562	0.00000	0.00000	0.00000	0.00000	0.00000	0.00000	1130.88867	84.45958	68.72980
943	3.76800	1140.70728	1024.62122	308.02594	970.91180	1002.82257	364.53757	1033.04382	606.31580	415.84961	1031.46741	560.92413	399.28708	984.35626	618.48083	411.57779	982.97913	574.11139	400.92978	1017.15558	488.57925	378.67850	1015.95172	476.71884	261.77927	1087.71216	384.11792	390.60965	1089.30371	338.17151	393.48700	0.00000	0.00000	0.00000	1036.34265	329.81604	391.35455	1093.17493	75.96888	320.34888	1075.50073	106.70518	232.89169	1152.37708	54.30316	276.06937	968.22058	34.27311	330.06479	917.18835	58.14315	264.93915	960.54712	27.96051	208.71321	1144.84790	1022.15704	187.41458	992.39783	1000.61029	117.83797	953.21210	642.49854	38.42264	938.15009	599.03088	43.03231	894.65509	657.96954	47.40820	885.17584	611.05371	49.28996	904.59595	513.44269	65.93713	900.65350	490.70355	187.84869	1020.52551	466.25613	73.20367	1044.70239	430.34769	70.85591	974.84314	427.88269	53.77416	1005.74689	397.80066	55.45939	1166.87195	193.72949	121.36749	1111.52161	185.54179	198.48804	1221.27942	200.26015	184.49626	1066.44739	63.59103	175.12212	0.00000	0.00000	0.00000	1119.15833	82.00252	68.33961
944	3.77200	1137.89709	1024.67554	307.95239	0.00000	0.00000	0.00000	1031.74609	606.26593	415.88980	1031.98389	562.03992	399.77148	983.04791	618.36346	411.65329	981.80774	573.98767	401.07925	1016.39728	488.53799	378.81757	1015.04639	476.59918	261.88431	1087.14563	384.16785	390.62540	1088.80566	338.24835	393.52582	0.00000	0.00000	0.00000	1035.84424	329.77289	391.40143	1093.17126	76.03763	320.29980	1075.16052	106.42671	232.64067	1152.33362	54.33554	276.03253	968.22345	34.25177	330.08008	917.13757	58.09623	264.94293	960.45026	27.89254	208.68175	1141.71838	1022.27472	187.34036	989.10754	1000.90430	118.21085	948.26752	643.23291	38.57566	932.95990	599.80170	43.23424	889.94714	658.97705	47.60971	880.10492	611.97339	49.61736	899.23907	514.36108	66.39959	895.61041	491.70383	188.29901	1014.88251	465.45206	73.22733	1038.61316	429.24496	70.80192	968.54602	427.78192	54.00823	999.10181	397.19446	55.59675	1157.04211	190.40208	121.12458	1101.94263	182.94885	197.18259	1212.02002	196.12598	184.01463	1054.47327	62.24747	174.93658	1027.17761	72.54253	114.20072	1107.27844	79.62100	68.20966
